<svg width="95" height="67" viewBox="0 0 95 67" fill="none" xmlns="http://www.w3.org/2000/svg">
<path d="M45.1269 2.96518C49.9511 1.31951 57.1392 0 66.5 0C84.9397 0 95 5.12791 95 7.76322C95 10.3985 84.9397 15.5264 66.5 15.5264C64.2549 15.5264 62.1397 15.4486 60.1469 15.3096C56.3789 9.88718 51.1797 5.61415 45.1269 2.96518ZM66.0176 41.3958C65.727 43.1429 65.3052 44.8657 64.7559 46.5497C65.3329 46.5608 65.9118 46.5682 66.4926 46.5682C77.9019 46.5682 88.6135 44.589 94.9926 41.3513V36.6904C87.8193 39.6723 77.566 41.4014 66.4926 41.4014L66.0176 41.3958ZM62.6406 51.6794C61.7481 53.4363 60.711 55.1162 59.5401 56.7017C61.7407 56.8463 64.0601 56.9278 66.4982 56.9278C80.2435 56.9278 90.3892 54.4278 94.9981 51.7517V47.0408C87.8249 50.0226 77.5716 51.7517 66.4982 51.7517C65.2006 51.7517 63.9147 51.7276 62.6406 51.6794ZM66.2031 31.0473C66.3978 32.5499 66.4969 34.0634 66.5 35.5785C66.5 35.7953 66.487 36.0103 66.4833 36.2253H66.5C77.9093 36.2253 88.6209 34.246 95 31.0084V26.3382C87.8268 29.3201 77.5734 31.0492 66.5 31.0492L66.2031 31.0473ZM63.2065 20.6358C63.989 22.3236 64.6367 24.0705 65.1437 25.8601C65.5945 25.8601 66.0454 25.8749 66.5 25.8749C77.9093 25.8749 88.6209 23.8957 95 20.6581V14.9872C88.7081 18.7548 77.5586 20.6988 66.5 20.6988C65.4016 20.6988 64.3013 20.6747 63.2065 20.6358ZM61.75 35.5785C61.75 41.6777 59.9392 47.6399 56.5466 52.7111C53.154 57.7824 48.332 61.735 42.6904 64.069C37.0487 66.4031 30.8408 67.0138 24.8516 65.8239C18.8624 64.634 13.361 61.6969 9.04309 57.3842C4.72515 53.0714 1.78459 47.5766 0.593268 41.5947C-0.59805 35.6127 0.0133777 29.4122 2.35023 23.7773C4.68709 18.1425 8.64441 13.3262 13.7218 9.93771C18.7991 6.5492 24.7685 4.74059 30.875 4.74059C39.0636 4.74059 46.9167 7.98957 52.7069 13.7728C58.4971 19.556 61.75 27.3998 61.75 35.5785ZM40.2154 40.0003C40.3527 37.0351 38.8665 35.2338 37.3098 34.2998C36.7301 33.942 36.0995 33.6739 35.4395 33.5047C34.1456 33.1773 32.8268 32.9579 31.4966 32.8487C28.834 32.5725 27.3812 32.0888 27.3812 30.8101C27.3812 29.3275 28.4184 28.8068 30.875 28.8068C32.7769 28.8068 33.6768 29.4628 34.367 30.8101C34.8865 31.7775 35.3356 31.9221 36.2707 31.5014L38.6587 30.4265C39.7312 29.978 39.9742 29.4591 39.4547 28.4917C38.2783 25.9694 36.3004 24.485 33.5061 24.0013V22.5836C33.5061 21.657 33.1943 21.3401 32.2258 21.3401H29.5966C28.6689 21.3401 28.3163 21.6514 28.3163 22.5836V24.0013C24.0283 24.6963 21.709 27.1833 21.709 30.812C21.709 33.0562 22.6089 34.8187 23.6814 35.7509C24.3045 36.2972 25.0342 36.7086 25.8244 36.9592C27.589 37.6504 28.5928 37.7523 30.5299 37.9951C33.2611 38.2713 34.6119 38.7197 34.6119 40.1023C34.6119 41.5848 33.2983 42.315 30.6691 42.315C28.6967 42.315 27.4183 41.6238 26.8635 40.2079C26.4145 39.2071 25.9358 38.9977 24.9264 39.3776L22.5736 40.2079C21.641 40.5526 21.3317 41.174 21.6459 42.0723C22.7165 44.9059 24.9301 46.5979 28.3256 47.1168V48.5326C28.3256 49.5 28.6707 49.8114 29.6059 49.8114H32.2351C33.2036 49.8114 33.5153 49.5 33.5153 48.5326V47.0501C37.7941 46.2532 40.2154 43.6957 40.2154 40.0003Z" fill="white"/>
</svg>
