<svg width="95" height="84" viewBox="0 0 95 84" fill="none" xmlns="http://www.w3.org/2000/svg">
<g clip-path="url(#clip0_6_217)">
<path d="M3.40148 26.6423H6.80686L5.05931 28.3899L3.31566 30.1335L4.5054 31.3233L5.69514 32.513L8.63243 29.5757L11.5658 26.6423L12.9935 26.6501L14.4173 26.6618L12.5527 30.192C11.5307 32.1346 10.6959 33.7457 10.6998 33.773C10.7154 33.8627 12.424 36.1953 12.4786 36.1992C12.5059 36.1992 13.4031 36.051 14.468 35.8677C19.9096 34.9354 20.6936 34.8028 20.7093 34.8184C20.721 34.8262 20.5025 35.5244 20.2256 36.3709L19.7263 37.9039L16.0985 39.7529C14.1052 40.771 12.4435 41.6213 12.4123 41.6447C12.3655 41.6798 12.4747 41.9217 13.1144 43.1738L13.8712 44.66L16.0478 43.5483C17.2454 42.9359 18.2323 42.4405 18.2362 42.4483C18.244 42.4561 17.7876 43.8838 17.222 45.6196C16.6563 47.3594 16.1882 48.8027 16.1804 48.8339C16.1687 48.8885 16.4301 48.9821 18.5482 49.6686C18.9773 49.8091 19.3401 49.9144 19.3518 49.8988C19.383 49.8637 21.4153 43.5951 21.4153 43.5366C21.4153 43.5132 21.427 43.4937 21.4426 43.4937C21.4621 43.4937 21.9731 44.4767 22.5855 45.6742L23.6973 47.8548L24.5359 47.4257C25.753 46.8016 26.6618 46.3335 26.6696 46.3257C26.6735 46.3218 25.8388 44.6639 24.809 42.6433C23.7792 40.6227 22.9366 38.9532 22.9366 38.9337C22.9366 38.8752 23.7987 36.2227 23.8299 36.1914C23.8416 36.1758 25.0547 37.4007 26.5253 38.9103C27.9959 40.4238 29.213 41.6603 29.2325 41.6603C29.2676 41.6603 31.1399 41.0596 31.8304 40.8295L32.0839 40.7437L32.1698 40.139C32.6027 37.1237 33.2737 32.5988 33.2854 32.5832C33.3049 32.5637 36.1603 34.6272 36.1603 34.6623C36.1603 34.6818 36.8039 38.7465 37.233 41.4614C37.3539 42.2026 37.4514 42.8111 37.4592 42.815C37.467 42.8267 40.732 42.3157 40.7554 42.3001C40.7632 42.2962 40.5954 41.204 40.3809 39.8699C40.1703 38.5397 40.0025 37.4475 40.0064 37.4475C40.0142 37.4475 41.2508 38.3447 42.7565 39.4369C44.2622 40.533 45.4987 41.4224 45.5065 41.4185C45.5104 41.4107 45.9551 40.8022 46.4934 40.061C47.3867 38.8362 47.4686 38.7114 47.4062 38.6645C47.3672 38.6372 46.1346 37.744 44.6679 36.6751C42.5497 35.1382 42.0153 34.7326 42.0738 34.7091C42.1362 34.6857 43.9462 34.3932 46.3725 34.0187C46.6143 33.9797 46.8172 33.9407 46.825 33.9329C46.8289 33.9251 46.7197 33.18 46.5753 32.279L46.314 30.6406L46.2204 30.6484C46.0955 30.6601 45.3466 30.7772 42.2845 31.2648C40.8568 31.491 39.3355 31.7329 38.9064 31.7992L38.1223 31.9201L36.7649 30.9332L35.4074 29.9424L35.54 29.8839C35.6102 29.8488 37.1901 29.0725 39.0468 28.1597L42.421 26.498L42.4327 24.9767L42.4405 23.4593L40.6383 22.566C39.6436 22.0745 38.0638 21.2905 37.1237 20.8263L35.4152 19.9798L36.761 19.0007C37.4982 18.4624 38.134 18.0216 38.1692 18.0216C38.2277 18.0216 38.9727 18.1386 44.0008 18.9344C45.1477 19.1177 46.1385 19.2699 46.2009 19.2777L46.314 19.2894L46.5753 17.651C46.8055 16.1999 46.8289 16.0088 46.7743 15.9854C46.7392 15.9698 45.7445 15.806 44.5664 15.6226C43.3845 15.4354 42.3391 15.2715 42.2338 15.2559C42.1323 15.2364 42.0387 15.2169 42.027 15.2052C42.0153 15.1935 43.2246 14.3003 44.7108 13.2236C46.197 12.1431 47.4257 11.2498 47.4452 11.2342C47.4647 11.2186 45.686 8.71043 45.5221 8.531C45.5065 8.5154 44.2622 9.39697 42.7526 10.4892C41.2469 11.5853 40.0103 12.4825 40.0064 12.4825C40.0025 12.4825 40.1703 11.3903 40.3809 10.0601C40.5915 8.72604 40.7593 7.62992 40.7554 7.62602C40.732 7.61042 37.4709 7.10331 37.4592 7.11502C37.4514 7.12282 37.3149 7.95758 37.155 8.97569C36.9911 9.99379 36.7025 11.8233 36.5074 13.0481C36.3124 14.2808 36.1368 15.2911 36.1095 15.3145C36.0237 15.3964 33.301 17.3624 33.2893 17.3507C33.2776 17.3351 33.2035 16.8358 32.3375 10.8169C32.2088 9.92358 32.0995 9.18633 32.0917 9.18243C32.0605 9.15512 29.2949 8.26965 29.252 8.27355C29.2208 8.27355 27.9959 9.51009 26.5253 11.0236C25.0586 12.5332 23.8416 13.7541 23.8299 13.7385C23.8143 13.7229 23.6075 13.0988 23.3657 12.3499L22.9249 10.9885L23.0614 10.7115C23.1394 10.5594 23.982 8.90157 24.9377 7.0253L26.6774 3.61211L26.5721 3.5497C26.5136 3.5146 25.8427 3.17133 25.082 2.78125L23.6933 2.0752L22.5855 4.25574C21.9731 5.45328 21.4621 6.42068 21.4504 6.40507C21.4348 6.38947 20.9628 4.95398 20.4011 3.21813C19.8355 1.47839 19.3674 0.0467987 19.3518 0.0311966C19.3401 0.0155907 18.794 0.179424 18.1386 0.393967C17.4833 0.60461 16.7773 0.834755 16.5666 0.90107C16.3404 0.975185 16.1882 1.0415 16.1882 1.0727C16.1882 1.10391 16.6524 2.5511 17.2181 4.29865C17.7876 6.0423 18.244 7.47389 18.2401 7.47779C18.2323 7.48559 17.2493 6.99019 16.0478 6.38167C14.8503 5.76925 13.8673 5.27385 13.8634 5.27775C13.8634 5.28165 13.5201 5.94868 13.1066 6.76004C12.6931 7.57531 12.3733 8.25014 12.3889 8.26965C12.4084 8.28915 14.0662 9.13952 16.0712 10.1615C18.0762 11.1835 19.7185 12.0222 19.7224 12.0261C19.7575 12.0612 20.7132 15.0687 20.6975 15.0882C20.678 15.1038 19.6365 14.9322 14.0233 13.9609C12.8024 13.7502 12.4552 13.7034 12.4201 13.7424C12.3733 13.7971 10.7545 16.0283 10.7154 16.0946C10.6998 16.118 11.5307 17.7446 12.5605 19.7028L14.429 23.2682L12.9974 23.2799L11.5658 23.2877L8.63243 20.3543L5.69514 17.417L4.5054 18.6067L3.31566 19.7965L5.05931 21.5401L6.80686 23.2877H3.40148H-3.8147e-06V24.965V26.6423H3.40148ZM16.7344 29.4704L18.2127 26.6618L20.7873 26.6501C22.2072 26.6462 23.3657 26.6579 23.3657 26.6735C23.3657 26.7399 21.9263 31.1399 21.8951 31.1672C21.8795 31.1828 21.2827 31.296 20.5766 31.4169C16.2194 32.158 15.3808 32.3024 15.3184 32.3141C15.2833 32.3219 15.2521 32.318 15.2521 32.3063C15.2521 32.2907 15.9191 31.0151 16.7344 29.4704ZM18.5911 18.1581C20.4128 18.4702 21.9029 18.7315 21.9068 18.7354C21.9224 18.755 23.3657 23.2252 23.3657 23.2526C23.3657 23.2721 22.2345 23.2877 20.799 23.2877L18.2323 23.2877L16.7461 20.4518C15.9269 18.8915 15.2638 17.6081 15.2716 17.6003C15.2794 17.5925 16.7734 17.8422 18.5911 18.1581ZM25.7842 30.1218C26.2172 28.7995 26.5721 27.7111 26.5799 27.7072C26.6033 27.6838 30.1569 30.2779 30.1804 30.3325C30.196 30.3793 29.2715 36.8195 29.2442 36.8507C29.2364 36.8546 28.9672 36.5932 28.6434 36.2656C27.7541 35.3645 25.0079 32.552 25.0079 32.5403C25.004 32.5325 25.3551 31.4442 25.7842 30.1218ZM27.1182 15.2286C28.2807 14.0389 29.2403 13.0793 29.2559 13.0949C29.2949 13.1417 30.2077 19.5234 30.1843 19.5858C30.1608 19.6443 26.6033 22.2501 26.5799 22.2266C26.5721 22.2149 25.0118 17.4404 25.004 17.4053C25.004 17.3975 25.9558 16.4184 27.1182 15.2286ZM30.4261 23.6036C31.4325 22.8703 32.279 22.2618 32.3102 22.2501C32.3765 22.2266 32.7315 22.3944 35.7117 23.8728C36.9326 24.4813 37.9078 24.9845 37.8766 24.9962C37.8454 25.0079 36.7142 25.5618 35.3606 26.2327C32.3921 27.6994 32.3609 27.715 32.2868 27.6721C32.1346 27.5824 28.5927 24.9884 28.5927 24.965C28.5927 24.9494 29.4158 24.337 30.4261 23.6036Z" fill="white"/>
</g>
<g clip-path="url(#clip1_6_217)">
<path d="M75.6237 29.1215V31.5981L74.3528 30.3272L73.0847 29.059L72.2194 29.9243L71.3542 30.7896L73.4904 32.9258L75.6237 35.0592L75.6181 36.0975L75.6096 37.133L73.0421 35.7769C71.6293 35.0336 70.4577 34.4265 70.4378 34.4294C70.3726 34.4407 68.6761 35.6833 68.6733 35.723C68.6733 35.7429 68.7811 36.3954 68.9144 37.1698C69.5924 41.1274 69.6889 41.6976 69.6775 41.7089C69.6719 41.7174 69.164 41.5586 68.5484 41.3572L67.4335 40.994L66.0888 38.3557C65.3484 36.906 64.7299 35.6975 64.7129 35.6748C64.6874 35.6407 64.5115 35.7202 63.6008 36.1854L62.5199 36.7358L63.3285 38.3188C63.7739 39.1897 64.1342 39.9075 64.1285 39.9103C64.1228 39.916 63.0845 39.5841 61.8221 39.1727C60.5568 38.7614 59.5071 38.4209 59.4844 38.4153C59.4447 38.4067 59.3766 38.5968 58.8773 40.1373C58.7752 40.4493 58.6986 40.7132 58.7099 40.7217C58.7355 40.7444 63.2944 42.2224 63.337 42.2224C63.354 42.2224 63.3682 42.2309 63.3682 42.2423C63.3682 42.2565 62.6533 42.6281 61.7823 43.0735L60.1965 43.882L60.5086 44.492C60.9625 45.3771 61.3029 46.0381 61.3086 46.0438C61.3114 46.0466 62.5171 45.4395 63.9866 44.6905C65.4562 43.9416 66.6704 43.3288 66.6846 43.3288C66.7271 43.3288 68.6562 43.9558 68.6789 43.9785C68.6903 43.987 67.7995 44.8693 66.7016 45.9388C65.6009 47.0083 64.7015 47.8934 64.7015 47.9076C64.7015 47.9332 65.1384 49.2949 65.3058 49.797L65.3682 49.9814L65.808 50.0438C68.0009 50.3587 71.2917 50.8467 71.3031 50.8552C71.3173 50.8694 69.8165 52.946 69.791 52.946C69.7768 52.946 66.8207 53.4141 64.8462 53.7262C64.3072 53.8141 63.8647 53.885 63.8618 53.8907C63.8533 53.8964 64.2249 56.2709 64.2363 56.2879C64.2391 56.2936 65.0335 56.1716 66.0037 56.0156C66.9711 55.8624 67.7654 55.7404 67.7654 55.7432C67.7654 55.7489 67.1129 56.6482 66.3186 57.7433C65.5214 58.8383 64.8746 59.7376 64.8774 59.7433C64.8831 59.7461 65.3257 60.0696 65.8647 60.4611C66.7555 61.1107 66.8463 61.1703 66.8803 61.1249C66.9002 61.0965 67.5498 60.2001 68.3271 59.1334C69.4449 57.5929 69.7399 57.2043 69.757 57.2468C69.774 57.2922 69.9868 58.6085 70.2591 60.3731C70.2875 60.549 70.3158 60.6965 70.3215 60.7022C70.3272 60.705 70.869 60.6256 71.5244 60.5206L72.7159 60.3306L72.7102 60.2625C72.7017 60.1717 72.6166 59.627 72.262 57.4C72.0974 56.3617 71.9215 55.2553 71.8733 54.9432L71.7854 54.373L72.5031 53.3857L73.2237 52.3985L73.2662 52.4949C73.2918 52.546 73.8563 53.695 74.5202 55.0454L75.7287 57.4993L76.8351 57.5078L77.9387 57.5135L78.5883 56.2028C78.9458 55.4794 79.516 54.3304 79.8536 53.6467L80.4692 52.4042L81.1813 53.3829C81.5728 53.9191 81.8934 54.3815 81.8934 54.407C81.8934 54.4496 81.8082 54.9914 81.2295 58.6483C81.0962 59.4823 80.9855 60.2029 80.9799 60.2483L80.9714 60.3306L82.1629 60.5206C83.2182 60.688 83.3572 60.705 83.3742 60.6653C83.3856 60.6398 83.5047 59.9164 83.6381 59.0596C83.7742 58.2 83.8934 57.4397 83.9047 57.3631C83.9189 57.2894 83.9331 57.2213 83.9416 57.2128C83.9501 57.2043 84.5998 58.0837 85.3828 59.1646C86.1686 60.2454 86.8183 61.1391 86.8296 61.1533C86.841 61.1675 88.6651 59.8738 88.7956 59.7547C88.807 59.7433 88.1658 58.8383 87.3715 57.7404C86.5743 56.6454 85.9218 55.7461 85.9218 55.7432C85.9218 55.7404 86.7161 55.8624 87.6835 56.0156C88.6538 56.1688 89.4509 56.2908 89.4538 56.2879C89.4651 56.2709 89.8339 53.8992 89.8254 53.8907C89.8197 53.885 89.2126 53.7858 88.4722 53.6694C87.7318 53.5503 86.4012 53.3404 85.5104 53.1985C84.614 53.0567 83.8792 52.929 83.8622 52.9091C83.8026 52.8467 82.3728 50.8665 82.3813 50.858C82.3927 50.8495 82.7558 50.7956 87.1332 50.1658C87.7828 50.0722 88.319 49.9928 88.3218 49.9871C88.3417 49.9644 88.9857 47.953 88.9829 47.9218C88.9829 47.8991 88.0835 47.0083 86.9828 45.9388C85.8849 44.8721 84.997 43.987 85.0083 43.9785C85.0197 43.9671 85.4736 43.8168 86.0183 43.6409L87.0083 43.3203L87.2098 43.4196C87.3204 43.4763 88.5261 44.0891 89.8907 44.7842L92.373 46.0494L92.4184 45.9728C92.4439 45.9303 92.6936 45.4423 92.9773 44.8891L93.4907 43.8792L91.9049 43.0735C91.034 42.6281 90.3304 42.2565 90.3417 42.2479C90.3531 42.2366 91.3971 41.8933 92.6595 41.4848C93.9248 41.0735 94.9659 40.733 94.9773 40.7217C94.9886 40.7132 94.8695 40.316 94.7135 39.8394C94.5603 39.3628 94.3929 38.8493 94.3447 38.6961C94.2908 38.5316 94.2425 38.4209 94.2198 38.4209C94.1971 38.4209 93.1446 38.7585 91.8737 39.1699C90.6056 39.5841 89.5644 39.916 89.5616 39.9132C89.5559 39.9075 89.9162 39.1926 90.3588 38.3188C90.8042 37.4479 91.1645 36.733 91.1616 36.7301C91.1588 36.7301 90.6737 36.4805 90.0836 36.1797C89.4907 35.879 88.9999 35.6464 88.9857 35.6578C88.9715 35.6719 88.3531 36.8776 87.6098 38.3358C86.8665 39.794 86.2566 40.9883 86.2537 40.9912C86.2282 41.0167 84.0409 41.7118 84.0267 41.7004C84.0154 41.6862 84.1402 40.9288 84.8466 36.8464C84.9998 35.9585 85.0338 35.706 85.0055 35.6804C84.9658 35.6464 83.343 34.4691 83.2948 34.4407C83.2778 34.4294 82.0948 35.0336 80.6706 35.7826L78.0777 37.1415L78.0692 36.1003L78.0635 35.0592L80.1969 32.9258L82.3331 30.7896L81.4678 29.9243L80.6026 29.059L79.3344 30.3272L78.0635 31.5981V29.1215V26.6477H76.8436H75.6237V29.1215ZM73.567 38.8181L75.6096 39.8933L75.6181 41.7657C75.6209 42.7983 75.6124 43.6409 75.601 43.6409C75.5528 43.6409 72.3528 42.5941 72.3329 42.5714C72.3215 42.56 72.2393 42.126 72.1513 41.6125C71.6123 38.4436 71.5073 37.8337 71.4988 37.7883C71.4932 37.7628 71.496 37.7401 71.5045 37.7401C71.5159 37.7401 72.4435 38.2252 73.567 38.8181ZM81.7941 40.1685C81.5671 41.4933 81.377 42.577 81.3742 42.5799C81.36 42.5912 78.1089 43.6409 78.089 43.6409C78.0748 43.6409 78.0635 42.8182 78.0635 41.7742V39.9075L80.1259 38.8266C81.2607 38.2309 82.1941 37.7486 82.1997 37.7542C82.2054 37.7599 82.0239 38.8465 81.7941 40.1685ZM73.0932 45.3998C74.0549 45.7147 74.8464 45.9728 74.8493 45.9785C74.8663 45.9955 72.9797 48.58 72.94 48.597C72.906 48.6083 68.2222 47.936 68.1995 47.9161C68.1966 47.9105 68.3867 47.7147 68.625 47.4793C69.2804 46.8324 71.3258 44.8352 71.3343 44.8352C71.34 44.8324 72.1315 45.0877 73.0932 45.3998ZM83.9246 46.37C84.7899 47.2154 85.4878 47.9133 85.4764 47.9246C85.4424 47.953 80.8011 48.6169 80.7557 48.5998C80.7132 48.5828 78.8181 45.9955 78.8351 45.9785C78.8437 45.9728 82.3161 44.8381 82.3416 44.8324C82.3473 44.8324 83.0593 45.5246 83.9246 46.37ZM77.8337 48.7757C78.3671 49.5077 78.8096 50.1233 78.8181 50.146C78.8351 50.1942 78.7132 50.4524 77.638 52.6198C77.1954 53.5077 76.8294 54.217 76.8209 54.1943C76.8124 54.1716 76.4096 53.3489 75.9216 52.3644C74.8549 50.2055 74.8436 50.1828 74.8748 50.1289C74.94 50.0183 76.8266 47.4424 76.8436 47.4424C76.855 47.4424 77.3004 48.041 77.8337 48.7757Z" fill="white"/>
</g>
<g clip-path="url(#clip2_6_217)">
<path d="M33.2613 59.3688V61.2263L32.308 60.2731L31.357 59.322L30.708 59.971L30.0591 60.6199L31.6612 62.2221L33.2613 63.8221L33.257 64.6008L33.2506 65.3774L31.325 64.3604C30.2655 63.8029 29.3867 63.3476 29.3718 63.3497C29.3229 63.3583 28.0505 64.2902 28.0484 64.32C28.0484 64.3349 28.1292 64.8242 28.2292 65.4051C28.7378 68.3732 28.8101 68.8009 28.8016 68.8094C28.7973 68.8158 28.4165 68.6967 27.9548 68.5456L27.1186 68.2732L26.1101 66.2945C25.5547 65.2072 25.0909 64.3008 25.0781 64.2838C25.059 64.2583 24.9271 64.3179 24.2441 64.6668L23.4334 65.0796L24.0398 66.2668C24.3739 66.92 24.6441 67.4583 24.6398 67.4605C24.6356 67.4647 23.8568 67.2158 22.91 66.9073C21.961 66.5987 21.1738 66.3434 21.1568 66.3392C21.127 66.3328 21.0759 66.4753 20.7014 67.6307C20.6248 67.8647 20.5674 68.0626 20.5759 68.069C20.5951 68.086 24.0143 69.1945 24.0462 69.1945C24.059 69.1945 24.0696 69.2009 24.0696 69.2094C24.0696 69.2201 23.5334 69.4988 22.8802 69.8328L21.6908 70.4392L21.9249 70.8967C22.2653 71.5605 22.5206 72.0563 22.5249 72.0605C22.527 72.0627 23.4313 71.6073 24.5334 71.0456C25.6356 70.4839 26.5462 70.0243 26.5569 70.0243C26.5888 70.0243 28.0356 70.4946 28.0526 70.5116C28.0612 70.518 27.3931 71.1797 26.5696 71.9818C25.7441 72.784 25.0696 73.4478 25.0696 73.4584C25.0696 73.4776 25.3973 74.4989 25.5228 74.8755L25.5696 75.0138L25.8994 75.0606C27.5441 75.2968 30.0123 75.6627 30.0208 75.6691C30.0314 75.6798 28.9059 77.2372 28.8867 77.2372C28.8761 77.2372 26.659 77.5883 25.1781 77.8224C24.7739 77.8883 24.4419 77.9415 24.4398 77.9458C24.4334 77.95 24.7122 79.7309 24.7207 79.7437C24.7228 79.7479 25.3186 79.6564 26.0462 79.5394C26.7718 79.4245 27.3675 79.333 27.3675 79.3352C27.3675 79.3394 26.8782 80.0139 26.2824 80.8352C25.6845 81.6565 25.1994 82.331 25.2015 82.3352C25.2058 82.3373 25.5377 82.5799 25.942 82.8735C26.6101 83.3608 26.6782 83.4054 26.7037 83.3714C26.7186 83.3501 27.2058 82.6778 27.7888 81.8778C28.6271 80.7224 28.8484 80.4309 28.8612 80.4628C28.8739 80.4969 29.0335 81.4841 29.2378 82.8076C29.2591 82.9395 29.2803 83.0501 29.2846 83.0544C29.2888 83.0565 29.6952 82.9969 30.1867 82.9182L31.0804 82.7756L31.0761 82.7246C31.0697 82.6565 31.0059 82.248 30.7399 80.5777C30.6165 79.799 30.4846 78.9692 30.4484 78.7351L30.3825 78.3075L30.9208 77.567L31.4612 76.8266L31.4931 76.8989C31.5123 76.9372 31.9357 77.799 32.4336 78.8117L33.34 80.6522L34.1698 80.6586L34.9975 80.6628L35.4847 79.6798C35.7528 79.1373 36.1805 78.2756 36.4337 77.7628L36.8954 76.8309L37.4294 77.5649C37.723 77.967 37.9635 78.3139 37.9635 78.333C37.9635 78.3649 37.8996 78.7713 37.4656 81.5139C37.3656 82.1395 37.2826 82.6799 37.2783 82.7139L37.272 82.7756L38.1656 82.9182C38.9571 83.0437 39.0614 83.0565 39.0741 83.0267C39.0826 83.0076 39.172 82.465 39.272 81.8224C39.3741 81.1777 39.4635 80.6075 39.472 80.5501C39.4826 80.4947 39.4933 80.4437 39.4997 80.4373C39.5061 80.4309 39.9933 81.0905 40.5805 81.9012C41.1699 82.7118 41.6572 83.382 41.6657 83.3927C41.6742 83.4033 43.0423 82.4331 43.1402 82.3437C43.1487 82.3352 42.6678 81.6565 42.0721 80.8331C41.4742 80.0118 40.9848 79.3373 40.9848 79.3352C40.9848 79.333 41.5806 79.4245 42.3061 79.5394C43.0338 79.6543 43.6317 79.7458 43.6338 79.7437C43.6423 79.7309 43.9189 77.9521 43.9125 77.9458C43.9083 77.9415 43.4529 77.867 42.8976 77.7798C42.3423 77.6904 41.3444 77.533 40.6763 77.4266C40.0039 77.3202 39.4529 77.2245 39.4401 77.2096C39.3954 77.1628 38.323 75.6776 38.3294 75.6713C38.3379 75.6649 38.6103 75.6244 41.8933 75.1521C42.3806 75.0819 42.7827 75.0223 42.7848 75.0181C42.7997 75.001 43.2827 73.4925 43.2806 73.4691C43.2806 73.4521 42.6061 72.784 41.7806 71.9818C40.9571 71.1818 40.2912 70.518 40.2997 70.5116C40.3082 70.5031 40.6486 70.3903 41.0571 70.2584L41.7997 70.018L41.9508 70.0924C42.0338 70.135 42.938 70.5946 43.9615 71.1159L45.8232 72.0648L45.8572 72.0074C45.8764 71.9754 46.0636 71.6095 46.2764 71.1946L46.6615 70.4371L45.4721 69.8328C44.8189 69.4988 44.2912 69.2201 44.2998 69.2137C44.3083 69.2052 45.0913 68.9477 46.0381 68.6413C46.987 68.3328 47.7679 68.0775 47.7764 68.069C47.7849 68.0626 47.6956 67.7647 47.5785 67.4073C47.4636 67.0498 47.3381 66.6647 47.3019 66.5498C47.2615 66.4264 47.2253 66.3434 47.2083 66.3434C47.1913 66.3434 46.4019 66.5966 45.4487 66.9051C44.4976 67.2158 43.7168 67.4647 43.7146 67.4626C43.7104 67.4583 43.9806 66.9222 44.3125 66.2668C44.6466 65.6136 44.9168 65.0774 44.9147 65.0753C44.9125 65.0753 44.5487 64.8881 44.1061 64.6625C43.6614 64.437 43.2934 64.2625 43.2827 64.271C43.2721 64.2817 42.8082 65.186 42.2508 66.2796C41.6933 67.3732 41.2359 68.269 41.2337 68.2711C41.2146 68.2903 39.5741 68.8116 39.5635 68.803C39.555 68.7924 39.6486 68.2243 40.1784 65.1625C40.2933 64.4966 40.3188 64.3072 40.2976 64.2881C40.2678 64.2625 39.0507 63.3795 39.0146 63.3583C39.0018 63.3497 38.1145 63.8029 37.0464 64.3647L35.1017 65.3838L35.0953 64.603L35.0911 63.8221L36.6911 62.2221L38.2933 60.6199L37.6443 59.971L36.9954 59.322L36.0443 60.2731L35.0911 61.2263V59.3688V57.5135H34.1762H33.2613V59.3688ZM31.7187 66.6413L33.2506 67.4477L33.257 68.852C33.2591 69.6265 33.2527 70.2584 33.2442 70.2584C33.2081 70.2584 30.808 69.4733 30.7931 69.4562C30.7846 69.4477 30.7229 69.1222 30.6569 68.7371C30.2527 66.3604 30.174 65.903 30.1676 65.8689C30.1633 65.8498 30.1654 65.8328 30.1718 65.8328C30.1803 65.8328 30.8761 66.1966 31.7187 66.6413ZM37.889 67.6541C37.7188 68.6477 37.5762 69.4605 37.5741 69.4626C37.5635 69.4711 35.1251 70.2584 35.1102 70.2584C35.0996 70.2584 35.0911 69.6414 35.0911 68.8584V67.4583L36.6379 66.6477C37.489 66.2009 38.189 65.8392 38.1933 65.8434C38.1975 65.8477 38.0613 66.6626 37.889 67.6541ZM31.3633 71.5776C32.0846 71.8137 32.6783 72.0074 32.6804 72.0116C32.6932 72.0244 31.2782 73.9627 31.2484 73.9755C31.2229 73.984 27.7101 73.4797 27.6931 73.4648C27.6909 73.4606 27.8335 73.3138 28.0122 73.1372C28.5037 72.652 30.0378 71.1541 30.0442 71.1541C30.0484 71.152 30.6421 71.3435 31.3633 71.5776ZM39.4869 72.3052C40.1358 72.9393 40.6593 73.4627 40.6508 73.4712C40.6252 73.4925 37.1443 73.9904 37.1103 73.9776C37.0783 73.9648 35.657 72.0244 35.6698 72.0116C35.6762 72.0074 38.2805 71.1563 38.2996 71.152C38.3039 71.152 38.838 71.6712 39.4869 72.3052ZM34.9187 74.1095C35.3187 74.6585 35.6507 75.1202 35.657 75.1372C35.6698 75.1734 35.5783 75.367 34.7719 76.9926C34.44 77.6585 34.1655 78.1905 34.1591 78.1734C34.1528 78.1564 33.8506 77.5394 33.4847 76.8011C32.6846 75.1819 32.6761 75.1649 32.6995 75.1244C32.7485 75.0415 34.1634 73.1095 34.1762 73.1095C34.1847 73.1095 34.5187 73.5584 34.9187 74.1095Z" fill="white"/>
</g>
<defs>
<clipPath id="clip0_6_217">
<rect width="49.93" height="47.4725" fill="white" transform="translate(0 49.93) rotate(-90)"/>
</clipPath>
<clipPath id="clip1_6_217">
<rect width="36.3127" height="34.5255" fill="white" transform="translate(58.6873 26.6476)"/>
</clipPath>
<clipPath id="clip2_6_217">
<rect width="27.2346" height="25.8941" fill="white" transform="translate(20.5589 57.5135)"/>
</clipPath>
</defs>
</svg>
