<svg width="15" height="12" viewBox="0 0 15 12" fill="none" xmlns="http://www.w3.org/2000/svg">
<path d="M0 1.65727V1.28985C0 1.0524 0.0987721 0.824669 0.274587 0.656764C0.450403 0.488859 0.68886 0.394531 0.9375 0.394531L14.0625 0.394531C14.3111 0.394531 14.5496 0.488859 14.7254 0.656764C14.9012 0.824669 15 1.0524 15 1.28985V1.65727L7.5 6.13387L0 1.65727ZM7.74844 7.0415C7.67392 7.08591 7.58784 7.10946 7.5 7.10946C7.41216 7.10946 7.32608 7.08591 7.25156 7.0415L0 2.71307V10.243C0 10.4805 0.0987721 10.7082 0.274587 10.8761C0.450403 11.044 0.68886 11.1384 0.9375 11.1384H14.0625C14.3111 11.1384 14.5496 11.044 14.7254 10.8761C14.9012 10.7082 15 10.4805 15 10.243V2.71307L7.74844 7.0415Z" fill="white"/>
</svg>
