<svg width="16" height="15" viewBox="0 0 16 15" fill="none" xmlns="http://www.w3.org/2000/svg">
<path fill-rule="evenodd" clip-rule="evenodd" d="M7.90104 15C12.2015 15 15.6875 11.6423 15.6875 7.5C15.6875 3.35775 12.2015 0 7.90104 0C3.60058 0 0.114578 3.35775 0.114578 7.5C0.114578 11.6423 3.60058 15 7.90104 15ZM10.4176 8.52075L11.6198 9.68175C11.8589 9.9135 11.8511 10.2968 11.6043 10.5367L11.2601 10.8608L11.2523 10.854C10.9639 11.0673 10.6213 11.202 10.2603 11.244C10.1825 11.2523 8.36433 11.4165 6.10782 9.2385C4.47499 7.66275 3.8731 6.501 4.03272 5.2305C4.05063 5.0715 4.09112 4.914 4.15731 4.74825C4.22739 4.57425 4.32238 4.41225 4.43606 4.27275L4.42672 4.26375L4.76543 3.9345C5.01382 3.6945 5.41093 3.68775 5.64919 3.91875L6.8522 5.07975C7.09125 5.31075 7.08424 5.69325 6.83663 5.93325L6.63574 6.126L6.22928 6.51825C6.25141 6.55558 6.27321 6.59308 6.29469 6.63075L6.29547 6.633C6.50804 7.00275 6.79925 7.50825 7.35053 8.04C7.90182 8.5725 8.42507 8.853 8.80816 9.05775L8.92729 9.12225L9.53308 8.53725C9.78147 8.29725 10.1778 8.2905 10.4176 8.5215V8.52075Z" fill="white"/>
</svg>
